<?xml version="1.0" encoding="UTF-8"?>
<svg width="225px" height="22px" viewBox="0 0 225 22" version="1.1" xmlns="http://www.w3.org/2000/svg" xmlns:xlink="http://www.w3.org/1999/xlink">
    <!-- Generator: Sketch 54.1 (76490) - https://sketchapp.com -->
    <title>Group 4</title>
    <desc>Created with Sketch.</desc>
    <g id="Page-1" stroke="none" stroke-width="1" fill="none" fill-rule="evenodd">
        <g id="Product-Page-–-Contracted" transform="translate(-687.000000, -90.000000)" fill="#4D4D4D" fill-rule="nonzero">
            <g id="Logo" transform="translate(687.000000, 90.000000)">
                <g id="Group-5">
                    <g id="Group-4">
                        <path d="M6.99810791,2.53088916 L5.5067062e-14,2.53088916 L5.5067062e-14,0.357 L16.37854,0.357 L16.37854,2.53088916 L9.38043213,2.53088916 L9.38043213,21.2024285 L6.99810791,21.2024285 L6.99810791,2.53088916 Z" id="Path-1"></path>
                        <path d="M26.949,0.357 L29.3015696,0.357 L29.3015696,21.2024285 L26.949,21.2024285 L26.949,0.357 Z" id="Path-2"></path>
                        <path d="M41.945,0.357 L44.3273853,0.357 L51.9211353,11.7326409 L59.5148547,0.357 L61.8971484,0.357 L61.8971484,21.2024285 L59.5446094,21.2024285 L59.5446094,4.31763232 L51.9509509,15.4848381 L51.8317493,15.4848381 L44.2380603,4.347448 L44.2380603,21.2024285 L41.945,21.2024285 L41.945,0.357 Z" id="Path-3"></path>
                        <path d="M74.174,0.357 L89.2422373,0.357 L89.2422373,2.50113452 L76.5266001,2.50113452 L76.5266001,9.61838306 L87.9022104,9.61838306 L87.9022104,11.762426 L76.5266001,11.762426 L76.5266001,19.0583855 L89.3911631,19.0583855 L89.3911631,21.2024285 L74.174,21.2024285 L74.174,0.357 Z" id="Path-4"></path>
                        <path d="M106.352113,1.78638232 L99.086,1.78638232 L99.086,0.357 L115.16675,0.357 L115.16675,1.78638232 L107.900697,1.78638232 L107.900697,21.2024285 L106.352113,21.2024285 L106.352113,1.78638232 Z" id="Path-5"></path>
                        <path d="M123.644,10.8396606 L123.644,10.7801208 C123.644,5.09225464 127.842853,-1.77635684e-15 134.156024,-1.77635684e-15 C140.469256,-1.77635684e-15 144.608478,5.03268433 144.608478,10.7204895 C144.638324,10.7502747 144.638324,10.7502747 144.608478,10.7801208 C144.608478,16.4678955 140.409686,21.5601501 134.096454,21.5601501 C127.783343,21.5601501 123.644,16.5274963 123.644,10.8396606 Z M143.000445,10.8396606 L143.000445,10.7801208 C143.000445,5.6282959 139.248248,1.39968872 134.096454,1.39968872 C128.944659,1.39968872 125.252032,5.56869507 125.252032,10.7204895 L125.252032,10.7801208 C125.252032,15.9319153 129.004229,20.1605835 134.156024,20.1605835 C139.307025,20.1605835 143.000445,15.9914246 143.000445,10.8396606 Z" id="Path-6"></path>
                        <path d="M154.694,18.1656824 L156.153167,16.4385706 C158.327057,18.4039941 160.41159,19.3867212 163.30014,19.3867212 C166.099396,19.3867212 167.945709,17.8977686 167.945709,15.84302 L167.945709,15.7833887 C167.945709,13.8477808 166.903473,12.7459131 162.52597,11.8227869 C157.731537,10.7804895 155.527801,9.23196655 155.527801,5.80737549 L155.527801,5.74780518 C155.527801,2.47210938 158.416473,0.06 162.377044,0.06 C165.41452,0.06 167.588409,0.923586426 169.702728,2.62103516 L168.332916,4.43747192 C166.397247,2.85928589 164.461639,2.17428833 162.317474,2.17428833 C159.607574,2.17428833 157.880401,3.66327148 157.880401,5.5393396 L157.880401,5.59894043 C157.880401,7.56436401 158.952423,8.66614014 163.538421,9.64889771 C168.18399,10.6614099 170.328094,12.3587976 170.328094,15.5451685 L170.328094,15.6047388 C170.328094,19.1782251 167.350189,21.5010095 163.210846,21.5010095 C159.905426,21.5010095 157.195465,20.3992029 154.694,18.1656824 Z" id="Path-7"></path>
                        <path d="M181.824,0.357 L189.626856,0.357 C194.331996,0.357 197.429103,2.85846484 197.429103,6.96796191 L197.429103,7.02759326 C197.429103,11.5241753 193.676173,13.8469597 189.239039,13.8469597 L184.176539,13.8469597 L184.176539,21.2024285 L181.824,21.2024285 L181.824,0.357 Z M189.329127,11.7028862 C192.782679,11.7028862 195.046717,9.85657275 195.046717,7.1168877 L195.046717,7.0573479 C195.046717,4.07935107 192.812525,2.53088916 189.447474,2.53088916 L184.176539,2.53088916 L184.176539,11.7028862 L189.329127,11.7028862 Z" id="Path-8"></path>
                        <path d="M213.297634,0.208 L215.501308,0.208 L225.00082,21.2023542 L222.469692,21.2023542 L220.027736,15.6932295 L208.681911,15.6932295 L206.210231,21.2023542 L203.798,21.2023542 L213.297634,0.208 Z M219.104641,13.5788801 L214.369716,2.94771558 L209.605007,13.5788801 L219.104641,13.5788801 Z" id="Path-9"></path>
                    </g>
                </g>
            </g>
        </g>
    </g>
</svg>